<svg xmlns="http://www.w3.org/2000/svg" xmlns:xlink="http://www.w3.org/1999/xlink" contentStyleType="text/css" height="192px" preserveAspectRatio="none" style="width:373px;height:192px;background:#FFFFFF;" version="1.1" viewBox="0 0 373 192" width="373px" zoomAndPan="magnify"><defs/><g><!--class Farola--><g id="elem_Farola"><rect codeLine="1" fill="#F1F1F1" height="178.375" id="Farola" rx="2.5" ry="2.5" style="stroke:#181818;stroke-width:0.5;" width="287.0508" x="7" y="7"/><ellipse cx="124.5645" cy="23" fill="#ADD1B2" rx="11" ry="11" style="stroke:#181818;stroke-width:1.0;"/><path d="M127.5332,28.6406 Q126.9551,28.9375 126.3145,29.0781 Q125.6738,29.2344 124.9707,29.2344 Q122.4707,29.2344 121.1426,27.5938 Q119.8301,25.9375 119.8301,22.8125 Q119.8301,19.6875 121.1426,18.0313 Q122.4707,16.375 124.9707,16.375 Q125.6738,16.375 126.3145,16.5313 Q126.9707,16.6875 127.5332,16.9844 L127.5332,19.7031 Q126.9082,19.125 126.3145,18.8594 Q125.7207,18.5781 125.0957,18.5781 Q123.752,18.5781 123.0645,19.6563 Q122.377,20.7188 122.377,22.8125 Q122.377,24.9063 123.0645,25.9844 Q123.752,27.0469 125.0957,27.0469 Q125.7207,27.0469 126.3145,26.7813 Q126.9082,26.5 127.5332,25.9219 L127.5332,28.6406 Z " fill="#000000"/><text fill="#000000" font-family="sans-serif" font-size="14" lengthAdjust="spacing" textLength="43.4219" x="145.0645" y="27.8467">Farola</text><line style="stroke:#181818;stroke-width:0.5;" x1="8" x2="293.0508" y1="39" y2="39"/><rect fill="none" height="6" style="stroke:#C82930;stroke-width:1.0;" width="6" x="15" y="49.6484"/><text fill="#000000" font-family="sans-serif" font-size="14" lengthAdjust="spacing" textLength="82.5781" x="27" y="55.9951">on: boolean</text><line style="stroke:#181818;stroke-width:0.5;" x1="8" x2="293.0508" y1="63.2969" y2="63.2969"/><ellipse cx="18" cy="76.9453" fill="#84BE84" rx="3" ry="3" style="stroke:#038048;stroke-width:1.0;"/><text fill="#000000" font-family="sans-serif" font-size="14" lengthAdjust="spacing" textLength="120.6748" x="27" y="80.292">&#171;create&#187; Farola()</text><ellipse cx="18" cy="93.2422" fill="#84BE84" rx="3" ry="3" style="stroke:#038048;stroke-width:1.0;"/><text fill="#000000" font-family="sans-serif" font-size="14" lengthAdjust="spacing" textLength="107.1396" x="27" y="96.5889">isOn(): boolean</text><ellipse cx="18" cy="109.5391" fill="#84BE84" rx="3" ry="3" style="stroke:#038048;stroke-width:1.0;"/><text fill="#000000" font-family="sans-serif" font-size="14" lengthAdjust="spacing" textLength="108.124" x="27" y="112.8857">isOff(): boolean</text><ellipse cx="18" cy="125.8359" fill="#84BE84" rx="3" ry="3" style="stroke:#038048;stroke-width:1.0;"/><text fill="#000000" font-family="sans-serif" font-size="14" lengthAdjust="spacing" textLength="59.8076" x="27" y="129.1826">turnOn()</text><ellipse cx="18" cy="142.1328" fill="#84BE84" rx="3" ry="3" style="stroke:#038048;stroke-width:1.0;"/><text fill="#000000" font-family="sans-serif" font-size="14" lengthAdjust="spacing" textLength="60.792" x="27" y="145.4795">turnOff()</text><ellipse cx="18" cy="158.4297" fill="#84BE84" rx="3" ry="3" style="stroke:#038048;stroke-width:1.0;"/><text fill="#000000" font-family="sans-serif" font-size="14" lengthAdjust="spacing" textLength="175.6631" x="27" y="161.7764">getNeighbors(): Farola[*]</text><ellipse cx="18" cy="174.7266" fill="#84BE84" rx="3" ry="3" style="stroke:#038048;stroke-width:1.0;"/><text fill="#000000" font-family="sans-serif" font-size="14" lengthAdjust="spacing" textLength="261.0508" x="27" y="178.0732">pairWithNeighbors(Farola otraFarola)</text></g><!--link Farola to Farola--><g id="link_Farola_Farola"><path codeLine="12" d="M294.47,66.1 C315.15,70.92 329.05,80.95 329.05,96.19 C329.05,111.43 320.9934,120.1081 300.3134,124.9281 " fill="none" id="Farola-to-Farola" style="stroke:#181818;stroke-width:1.0;"/><polygon fill="#181818" points="294.47,126.29,304.143,128.1427,299.3395,125.155,302.3271,120.3515,294.47,126.29" style="stroke:#181818;stroke-width:1.0;"/><text fill="#000000" font-family="sans-serif" font-size="13" lengthAdjust="spacing" textLength="64.6636" x="301.9067" y="61.584">neighbors</text><text fill="#000000" font-family="sans-serif" font-size="13" lengthAdjust="spacing" textLength="6.5" x="302.0597" y="124.5258">*</text></g><!--SRC=[LOon2iCW54NtznNY52F-G0cE7TknG-dm4amYYAyypLJwxubeQRjTpZdSAM1AuenC0LzWA9x4I1GSHj33CB73xAnjGQT0-tIDdVgf3Z3FVoHl74lKLh6W5vSlpY_hI9nANH_l_GFq4ptVV5w_laf1cR5E1V26HcNyT58OOuNiPNlR0G00]--></g></svg>